<svg width="83" height="83" viewBox="0 0 83 83" fill="none" xmlns="http://www.w3.org/2000/svg">
<path d="M10.6344 11.6044C10.4581 11.5946 10.2816 11.6208 10.1158 11.6815C9.94995 11.7422 9.79828 11.8362 9.67005 11.9576C9.54183 12.0791 9.43975 12.2254 9.37008 12.3877C9.30042 12.5499 9.26462 12.7247 9.2649 12.9013V46.9248C9.26125 51.7337 10.6533 56.4402 13.2722 60.4733C18.1705 68.0276 26.9984 77.6128 41.2536 80.3816C41.4162 80.4145 41.5838 80.4145 41.7464 80.3816C56.0017 77.6128 64.8308 68.0276 69.7278 60.4733C72.3463 56.44 73.7379 51.7335 73.7339 46.9248V12.8987C73.7339 12.7222 73.6979 12.5476 73.6282 12.3854C73.5583 12.2233 73.4562 12.0772 73.3279 11.9559C73.1985 11.8365 73.0467 11.744 72.8813 11.6837C72.7159 11.6234 72.5402 11.5964 72.3644 11.6044C67.175 11.9088 61.9708 11.3657 56.9562 9.99632C51.6571 8.56149 46.677 6.13787 42.2781 2.85313C42.0527 2.6823 41.7777 2.58984 41.4948 2.58984C41.212 2.58984 40.9369 2.6823 40.7115 2.85313C36.3158 6.13671 31.3393 8.56027 26.0439 9.99632C21.0291 11.3671 15.8242 11.9103 10.6344 11.6044ZM26.7286 12.498C32.0274 11.0583 37.0288 8.6898 41.5 5.50265C45.9709 8.68966 50.9718 11.0582 56.2701 12.498C61.1113 13.8227 66.1236 14.4146 71.1401 14.254V46.9248C71.1437 51.2327 69.8971 55.449 67.5517 59.0623C62.9555 66.1497 54.7139 75.128 41.5 77.7866C28.2862 75.128 20.0445 66.1497 15.4484 59.0623C13.1029 55.449 11.8564 51.2327 11.8599 46.9248V14.254C16.8764 14.4121 21.887 13.8202 26.7286 12.498Z" fill="#1789F8"/>
<path d="M20.8304 47.6794C21.3017 47.6792 21.7625 47.8187 22.1545 48.0804C22.5465 48.342 22.852 48.7141 23.0325 49.1495C23.213 49.5849 23.2603 50.064 23.1684 50.5263C23.0765 50.9885 22.8496 51.4132 22.5163 51.7464C22.2732 51.9896 22.1366 52.3194 22.1366 52.6633C22.1366 53.0072 22.2732 53.337 22.5163 53.5802L29.4221 60.4861C29.6653 60.7292 29.9952 60.8658 30.339 60.8658C30.6829 60.8658 31.0127 60.7292 31.2559 60.4861C31.5892 60.1528 32.0138 59.9258 32.4761 59.834C32.9383 59.7421 33.4175 59.7894 33.8529 59.9698C34.2883 60.1503 34.6603 60.4559 34.922 60.8479C35.1837 61.2399 35.3232 61.7007 35.3229 62.172C35.3229 62.516 35.4596 62.8458 35.7028 63.089C35.946 63.3322 36.2759 63.4689 36.6198 63.4689H46.3853C46.7292 63.4689 47.0591 63.3322 47.3023 63.089C47.5455 62.8458 47.6821 62.516 47.6821 62.172C47.6819 61.7007 47.8214 61.2399 48.0831 60.8479C48.3447 60.4559 48.7168 60.1503 49.1522 59.9698C49.5876 59.7894 50.0667 59.7421 50.529 59.834C50.9913 59.9258 51.4159 60.1528 51.7491 60.4861C51.9924 60.7292 52.3222 60.8658 52.666 60.8658C53.0099 60.8658 53.3397 60.7292 53.5829 60.4861L60.4888 53.5802C60.7319 53.337 60.8685 53.0072 60.8685 52.6633C60.8685 52.3194 60.7319 51.9896 60.4888 51.7464C60.1555 51.4132 59.9286 50.9885 59.8367 50.5263C59.7448 50.064 59.7921 49.5849 59.9726 49.1495C60.153 48.7141 60.4586 48.342 60.8506 48.0804C61.2426 47.8187 61.7034 47.6792 62.1747 47.6794C62.5187 47.6794 62.8485 47.5428 63.0918 47.2996C63.335 47.0564 63.4716 46.7265 63.4716 46.3826V36.6171C63.4716 36.2731 63.335 35.9433 63.0918 35.7001C62.8485 35.4568 62.5187 35.3202 62.1747 35.3202C61.7034 35.3205 61.2426 35.181 60.8506 34.9193C60.4586 34.6576 60.153 34.2855 59.9726 33.8502C59.7921 33.4148 59.7448 32.9356 59.8367 32.4734C59.9286 32.0111 60.1555 31.5865 60.4888 31.2532C60.7319 31.01 60.8685 30.6802 60.8685 30.3363C60.8685 29.9924 60.7319 29.6626 60.4888 29.4194L53.5803 22.5136C53.3371 22.2704 53.0073 22.1339 52.6634 22.1339C52.3196 22.1339 51.9898 22.2704 51.7466 22.5136C51.4133 22.8469 50.9887 23.0738 50.5264 23.1657C50.0641 23.2576 49.585 23.2103 49.1496 23.0298C48.7142 22.8493 48.3422 22.5437 48.0805 22.1518C47.8188 21.7598 47.6793 21.2989 47.6796 20.8276C47.6796 20.4837 47.5429 20.1538 47.2997 19.9106C47.0565 19.6674 46.7266 19.5308 46.3827 19.5308H36.6172C36.2733 19.5308 35.9434 19.6674 35.7002 19.9106C35.457 20.1538 35.3203 20.4837 35.3203 20.8276C35.3206 21.2989 35.1811 21.7598 34.9194 22.1518C34.6577 22.5437 34.2857 22.8493 33.8503 23.0298C33.4149 23.2103 32.9358 23.2576 32.4735 23.1657C32.0112 23.0738 31.5866 22.8469 31.2533 22.5136C31.0101 22.2704 30.6803 22.1339 30.3364 22.1339C29.9926 22.1339 29.6628 22.2704 29.4196 22.5136L22.5137 29.4194C22.2706 29.6626 22.134 29.9924 22.134 30.3363C22.134 30.6802 22.2706 31.01 22.5137 31.2532C22.847 31.5865 23.0739 32.0111 23.1658 32.4734C23.2577 32.9356 23.2104 33.4148 23.0299 33.8502C22.8494 34.2855 22.5439 34.6576 22.1519 34.9193C21.7599 35.181 21.2991 35.3205 20.8278 35.3202C20.4838 35.3202 20.1539 35.4568 19.9107 35.7001C19.6675 35.9433 19.5309 36.2731 19.5309 36.6171V46.3826C19.5309 46.5531 19.5645 46.7219 19.6298 46.8795C19.6952 47.037 19.7909 47.18 19.9116 47.3005C20.0323 47.421 20.1756 47.5164 20.3333 47.5815C20.4909 47.6465 20.6598 47.6798 20.8304 47.6794ZM22.1272 37.7493C22.8625 37.5482 23.542 37.1816 24.1138 36.6775C24.6857 36.1734 25.1346 35.5453 25.4263 34.841C25.7181 34.1368 25.8449 33.3752 25.797 32.6144C25.7491 31.8536 25.5279 31.1139 25.1502 30.4517L30.4519 25.1488C31.1138 25.527 31.8535 25.7487 32.6144 25.7969C33.3752 25.8451 34.137 25.7186 34.8414 25.4269C35.5458 25.1352 36.174 24.6862 36.6781 24.1143C37.1821 23.5423 37.5486 22.8626 37.7494 22.1271H45.2505C45.4513 22.8626 45.8178 23.5423 46.3218 24.1143C46.8259 24.6862 47.4541 25.1352 48.1585 25.4269C48.8629 25.7186 49.6247 25.8451 50.3855 25.7969C51.1464 25.7487 51.8861 25.527 52.548 25.1488L57.8496 30.4517C57.472 31.1139 57.2507 31.8536 57.2029 32.6144C57.155 33.3752 57.2818 34.1368 57.5736 34.841C57.8653 35.5453 58.3142 36.1734 58.886 36.6775C59.4579 37.1816 60.1374 37.5482 60.8727 37.7493V45.2504C60.1374 45.4515 59.4579 45.8181 58.886 46.3221C58.3142 46.8262 57.8653 47.4544 57.5736 48.1586C57.2818 48.8629 57.155 49.6245 57.2029 50.3853C57.2507 51.146 57.472 51.8858 57.8496 52.5479L52.548 57.8508C51.8861 57.4726 51.1464 57.2509 50.3855 57.2027C49.6247 57.1545 48.8629 57.2811 48.1585 57.5728C47.4541 57.8644 46.8259 58.3134 46.3218 58.8854C45.8178 59.4573 45.4513 60.1371 45.2505 60.8725H37.7494C37.5486 60.1371 37.1821 59.4573 36.6781 58.8854C36.174 58.3134 35.5458 57.8644 34.8414 57.5728C34.137 57.2811 33.3752 57.1545 32.6144 57.2027C31.8535 57.2509 31.1138 57.4726 30.4519 57.8508L25.1502 52.5479C25.5279 51.8858 25.7491 51.146 25.797 50.3853C25.8449 49.6245 25.7181 48.8629 25.4263 48.1586C25.1346 47.4544 24.6857 46.8262 24.1138 46.3221C23.542 45.8181 22.8625 45.4515 22.1272 45.2504V37.7493Z" fill="#1789F8"/>
<path d="M41.5 53.9371C43.9598 53.9371 46.3644 53.2076 48.4097 51.841C50.4549 50.4744 52.049 48.532 52.9903 46.2595C53.9317 43.9869 54.178 41.4862 53.6981 39.0737C53.2182 36.6611 52.0337 34.4451 50.2943 32.7057C48.555 30.9664 46.3389 29.7819 43.9264 29.302C41.5138 28.8221 39.0131 29.0684 36.7406 30.0097C34.468 30.951 32.5256 32.5451 31.159 34.5904C29.7924 36.6356 29.063 39.0402 29.063 41.5C29.0664 44.7975 30.3778 47.9589 32.7095 50.2905C35.0412 52.6222 38.2026 53.9336 41.5 53.9371ZM41.5 31.6567C43.4468 31.6567 45.3499 32.234 46.9687 33.3156C48.5874 34.3972 49.849 35.9345 50.594 37.7332C51.339 39.5318 51.534 41.5109 51.1542 43.4204C50.7744 45.3298 49.8369 47.0837 48.4603 48.4603C47.0837 49.8369 45.3298 50.7744 43.4203 51.1542C41.5109 51.534 39.5318 51.339 37.7332 50.594C35.9345 49.849 34.3972 48.5874 33.3156 46.9687C32.234 45.3499 31.6567 43.4468 31.6567 41.5C31.6602 38.8905 32.6983 36.3888 34.5436 34.5436C36.3888 32.6983 38.8905 31.6602 41.5 31.6567Z" fill="#1789F8"/>
</svg>
