<svg width="83" height="83" viewBox="0 0 83 83" fill="none" xmlns="http://www.w3.org/2000/svg">
<path d="M30.614 51.2876H14.1554C13.8114 51.2876 13.4816 51.4242 13.2384 51.6674C12.9952 51.9107 12.8585 52.2405 12.8585 52.5845V63.2642C12.8585 63.6082 12.9952 63.9381 13.2384 64.1813C13.4816 64.4245 13.8114 64.5611 14.1554 64.5611H30.614C30.958 64.5611 31.2879 64.4245 31.5311 64.1813C31.7743 63.9381 31.9109 63.6082 31.9109 63.2642V52.5845C31.9109 52.2405 31.7743 51.9107 31.5311 51.6674C31.2879 51.4242 30.958 51.2876 30.614 51.2876ZM29.3172 61.9674H15.4523V53.8813H29.3172V61.9674Z" fill="#1789F8"/>
<path d="M79.6281 41.7452L67.5879 36.5123V10.0897C67.5859 8.33783 66.8888 6.6583 65.6498 5.41976C64.4108 4.18121 62.731 3.48484 60.9791 3.48346H43.7423C43.7319 3.48273 43.7215 3.48273 43.7112 3.48346H26.4627C26.4524 3.48346 26.4433 3.48346 26.4316 3.48346H9.20003C7.44857 3.48552 5.76943 4.1822 4.53096 5.42067C3.29249 6.65914 2.59581 8.33828 2.59375 10.0897V67.7773C2.59581 69.5288 3.29249 71.2079 4.53096 72.4464C5.76943 73.6849 7.44857 74.3816 9.20003 74.3836H52.229C52.2459 74.3979 52.2602 74.416 52.277 74.4303C54.7021 76.5987 57.5085 78.2983 60.5537 79.4427C60.8466 79.5513 61.1686 79.5513 61.4615 79.4427C62.3378 79.1136 63.1966 78.7396 64.0345 78.3222C67.7738 76.3956 71.036 73.6588 73.5834 70.3114C78.0691 64.4334 80.4697 57.2289 80.4062 49.8351V42.9344C80.4064 42.6819 80.3328 42.435 80.1946 42.2237C80.0564 42.0125 79.8595 41.8461 79.6281 41.7452ZM27.7648 6.07721H42.4195V26.018L35.9429 20.361C35.7065 20.1541 35.403 20.0401 35.0889 20.0401C34.7748 20.0401 34.4713 20.1541 34.2349 20.361L27.7648 26.0232V6.07721ZM5.1875 67.7773V10.0897C5.18956 9.02619 5.61296 8.00678 6.36501 7.25473C7.11706 6.50268 8.13647 6.07927 9.20003 6.07721H25.171V28.875C25.1711 29.1241 25.2428 29.3679 25.3777 29.5772C25.5125 29.7866 25.7049 29.9528 25.9316 30.0558C26.1584 30.1588 26.4101 30.1943 26.6565 30.158C26.9029 30.1218 27.1337 30.0154 27.3213 29.8515L35.0895 23.0546L42.8578 29.8515C43.0454 30.0154 43.2762 30.1218 43.5226 30.158C43.769 30.1943 44.0207 30.1588 44.2474 30.0558C44.4742 29.9528 44.6666 29.7866 44.8014 29.5772C44.9363 29.3679 45.008 29.1241 45.008 28.875V6.07721H60.9791C62.0426 6.07927 63.062 6.50268 63.8141 7.25473C64.5661 8.00678 64.9895 9.02619 64.9916 10.0897V35.3788L61.5212 33.8705C61.3577 33.7986 61.181 33.7614 61.0024 33.7614C60.8238 33.7614 60.6471 33.7986 60.4837 33.8705L42.3663 41.74C42.1349 41.841 41.9381 42.0073 41.7999 42.2185C41.6616 42.4298 41.5881 42.6768 41.5882 42.9292V49.8299C41.5833 52.9211 41.9942 55.9989 42.8098 58.9806C43.8945 63.0925 45.7983 66.9429 48.4072 70.3011C48.8131 70.8198 49.2462 71.2997 49.6742 71.7847H9.20003C8.13737 71.7826 7.11874 71.3599 6.36684 70.609C5.61494 69.8581 5.19093 68.84 5.1875 67.7773ZM77.8125 49.8351C77.8766 56.6494 75.67 63.2912 71.5408 68.7124C69.2285 71.755 66.2668 74.2436 62.8712 75.9969C62.2785 76.2926 61.6521 76.5727 61.0024 76.8321C58.4298 75.8003 56.0565 74.3284 53.9889 72.4824C52.6917 71.3396 51.5062 70.0759 50.4484 68.7085C48.0606 65.6162 46.313 62.079 45.3076 58.3037C44.554 55.5441 44.1745 52.6957 44.1793 49.8351V43.7852L60.9998 36.4786L65.7516 38.5419L65.819 38.5704L77.8125 43.7852V49.8351Z" fill="#1789F8"/>
<path d="M59.4669 57.8861L54.7061 53.1227C54.5864 52.9988 54.4433 52.9 54.2851 52.8321C54.1269 52.7641 53.9567 52.7283 53.7845 52.7268C53.6123 52.7253 53.4416 52.7582 53.2822 52.8234C53.1228 52.8886 52.978 52.9849 52.8562 53.1066C52.7345 53.2284 52.6382 53.3732 52.573 53.5326C52.5077 53.692 52.4749 53.8627 52.4764 54.0349C52.4779 54.2071 52.5137 54.3773 52.5817 54.5355C52.6496 54.6938 52.7484 54.8369 52.8723 54.9565L58.55 60.6368C58.6705 60.7574 58.8135 60.853 58.9709 60.9183C59.1284 60.9836 59.2971 61.0172 59.4676 61.0172C59.638 61.0172 59.8067 60.9836 59.9642 60.9183C60.1216 60.853 60.2647 60.7574 60.3851 60.6368L71.0195 50.0024C71.2561 49.7582 71.3873 49.4308 71.3848 49.0907C71.3824 48.7507 71.2464 48.4252 71.0063 48.1844C70.7662 47.9436 70.4411 47.8067 70.101 47.8033C69.761 47.7999 69.4332 47.9301 69.1883 48.1661L59.4669 57.8861Z" fill="#1789F8"/>
</svg>
