<svg width="83" height="83" viewBox="0 0 83 83" fill="none" xmlns="http://www.w3.org/2000/svg">
<path d="M80.4062 19.7125C80.4016 19.5694 80.3727 19.4282 80.3207 19.2949C80.3103 19.2676 80.3025 19.2404 80.2908 19.2145C80.2327 19.0818 80.152 18.9602 80.0522 18.8552C80.034 18.8358 80.012 18.8189 79.9925 18.8008C79.9518 18.7588 79.9085 18.7193 79.8629 18.6827C79.7908 18.6321 79.7139 18.5887 79.6333 18.5531C79.6242 18.5531 79.6177 18.5401 79.6087 18.5362L41.9993 3.01131C41.6815 2.88295 41.3263 2.88295 41.0085 3.01131L3.39522 18.5453C3.38484 18.5453 3.37706 18.5595 3.36669 18.5647C3.28768 18.5974 3.21209 18.6378 3.14103 18.6853C3.09538 18.7219 3.05206 18.7613 3.01134 18.8034C2.99189 18.8215 2.96984 18.8384 2.95169 18.8578C2.85192 18.9628 2.77117 19.0844 2.71306 19.2171C2.70139 19.243 2.69361 19.2702 2.68323 19.2975C2.63018 19.4298 2.59993 19.5701 2.59375 19.7125V19.7358V65.5337C2.59356 65.8023 2.6768 66.0644 2.83199 66.2837C2.98718 66.503 3.20664 66.6687 3.46006 66.7579L41.0694 80.0081H41.0902C41.3554 80.1014 41.6446 80.1014 41.9098 80.0081H41.9306L79.5399 66.7579C79.7934 66.6687 80.0128 66.503 80.168 66.2837C80.3232 66.0644 80.4064 65.8023 80.4062 65.5337V19.7332V19.7125ZM41.5 31.6178L31.0666 27.9424L64.6933 15.1942L75.4781 19.6437L41.5 31.6178ZM18.6011 26.3006L25.9129 28.8775V47.4332L18.6011 44.8718V26.3006ZM20.9562 24.3812L54.1562 10.8483L61.1853 13.7494L27.2733 26.6028L20.9562 24.3812ZM41.5 5.61803L50.748 9.43603L17.2718 23.0843L7.52188 19.6437L41.5 5.61803ZM5.1875 21.5709L16.0073 25.3824V45.7874C16.0075 46.056 16.0911 46.3179 16.2465 46.537C16.4019 46.7561 16.6215 46.9215 16.8749 47.0104L26.7805 50.486C26.976 50.5546 27.1852 50.5753 27.3904 50.5465C27.5956 50.5176 27.7909 50.44 27.96 50.3201C28.129 50.2002 28.2669 50.0415 28.362 49.8574C28.4571 49.6732 28.5067 49.469 28.5066 49.2618V29.7879L40.2031 33.9081V76.9539L5.1875 64.6155V21.5709ZM77.8125 64.6155L42.7969 76.9539V33.9081L77.8125 21.5709V64.6155Z" fill="#1789F8"/>
<path d="M73.6716 38.0686C74.0155 38.0686 74.3454 37.932 74.5886 37.6887C74.8318 37.4455 74.9684 37.1157 74.9684 36.7717V33.4258C74.9684 33.0818 74.8318 32.752 74.5886 32.5088C74.3454 32.2655 74.0155 32.1289 73.6716 32.1289C73.3276 32.1289 72.9978 32.2655 72.7545 32.5088C72.5113 32.752 72.3747 33.0818 72.3747 33.4258V36.7717C72.3747 37.1157 72.5113 37.4455 72.7545 37.6887C72.9978 37.932 73.3276 38.0686 73.6716 38.0686Z" fill="#1789F8"/>
<path d="M73.6716 58.8185C74.0155 58.8185 74.3454 58.6818 74.5886 58.4386C74.8318 58.1954 74.9684 57.8655 74.9684 57.5216V41.5C74.9684 41.156 74.8318 40.8262 74.5886 40.583C74.3454 40.3398 74.0155 40.2031 73.6716 40.2031C73.3276 40.2031 72.9978 40.3398 72.7545 40.583C72.5113 40.8262 72.3747 41.156 72.3747 41.5V57.5216C72.3747 57.8655 72.5113 58.1954 72.7545 58.4386C72.9978 58.6818 73.3276 58.8185 73.6716 58.8185Z" fill="#1789F8"/>
</svg>
