<svg width="78" height="78" viewBox="0 0 78 78" fill="none" xmlns="http://www.w3.org/2000/svg">
<g clip-path="url(#clip0_55_171)">
<path d="M77.9996 13.3762C77.9996 13.3676 77.9986 13.3591 77.9983 13.3504C77.9974 13.3165 77.9954 13.2829 77.9914 13.2497C77.9899 13.2375 77.9876 13.2254 77.9858 13.2132C77.9812 13.1825 77.9756 13.1524 77.9686 13.1228C77.9658 13.1111 77.9628 13.0995 77.9596 13.0878C77.9507 13.0556 77.9407 13.0241 77.9291 12.993C77.927 12.9871 77.9256 12.981 77.9233 12.9752L74.8239 5.04086C74.5114 4.24136 73.7547 3.72461 72.8963 3.72461H67.2529C66.6377 3.72461 66.1391 4.22323 66.1391 4.83839C66.1391 5.45356 66.6377 5.95218 67.2529 5.95218H72.7884L75.255 12.2667H51.9352L50.4741 5.95218H59.0865C59.7017 5.95218 60.2003 5.45356 60.2003 4.83839C60.2003 4.22323 59.7017 3.72461 59.0865 3.72461H49.0731H37.8504H14.0271C13.1685 3.72461 12.412 4.24136 12.0995 5.04116L9.00009 12.9752C8.9978 12.9812 8.99659 12.9872 8.9943 12.993C8.98272 13.024 8.97267 13.0555 8.96383 13.0878C8.96063 13.0995 8.95759 13.1111 8.95484 13.1228C8.94783 13.1525 8.9422 13.1827 8.93763 13.2132C8.9358 13.2254 8.93352 13.2375 8.93199 13.2497C8.92818 13.2829 8.92605 13.3165 8.92514 13.3504C8.92498 13.359 8.92392 13.3675 8.92377 13.3762C8.92377 13.3775 8.92361 13.3789 8.92361 13.3803V29.7435C8.92361 30.3587 9.42223 30.8573 10.0374 30.8573C10.6526 30.8573 11.1512 30.3587 11.1512 29.7435V14.4942H34.7602V31.4239C34.7602 32.0859 35.1501 32.6892 35.7539 32.9608C35.9749 33.0603 36.2103 33.1089 36.4442 33.1089C36.8488 33.1089 37.249 32.9636 37.5628 32.6854L43.4617 27.4594L49.3606 32.6853C49.8559 33.1245 50.5661 33.2325 51.1698 32.9608C51.7734 32.6891 52.1634 32.0859 52.1634 31.4239V14.4942H75.7722V64.4512C75.7722 65.2503 75.1219 65.9007 74.3227 65.9007H53.9006C53.9006 65.8881 53.8991 65.8754 53.8989 65.8628C53.8977 65.7628 53.894 65.663 53.8855 65.564C55.8031 66.0724 57.8519 65.0869 58.6203 63.2024C59.0245 62.2111 59.0186 61.1218 58.6034 60.1353C58.5643 60.0423 58.5212 59.9521 58.4758 59.8633C58.4674 59.847 58.4593 59.8306 58.4509 59.8144C58.4063 59.7297 58.3588 59.647 58.3086 59.5664C58.2989 59.5507 58.2888 59.5355 58.2789 59.5199C58.2259 59.4372 58.1709 59.356 58.1123 59.2779C58.1112 59.2763 58.11 59.275 58.1089 59.2736C58.0507 59.1964 57.9892 59.122 57.9257 59.0494C57.9141 59.0361 57.9026 59.0227 57.8909 59.0094C57.828 58.9394 57.7626 58.8716 57.695 58.8062C57.6818 58.7934 57.6683 58.7811 57.6549 58.7686C57.5841 58.702 57.5116 58.6373 57.436 58.5762C57.4334 58.5742 57.4308 58.5722 57.4282 58.5702C57.3539 58.5104 57.2767 58.4537 57.1979 58.3992C57.1837 58.3893 57.1697 58.3792 57.1553 58.3694C57.0765 58.3164 56.9957 58.2663 56.9129 58.2186C56.906 58.2147 56.8998 58.2101 56.8928 58.2061C57.3635 57.7988 57.7351 57.2832 57.977 56.69C58.3812 55.6987 58.3752 54.6095 57.9601 53.6227C57.5969 52.7594 56.9584 52.065 56.1406 51.6342C56.0238 51.5726 55.9033 51.5164 55.7794 51.466L38.4447 44.3977L46.5138 41.9002C48.4334 41.3059 49.5146 39.2584 48.9238 37.3363C48.7034 36.6188 48.2663 36.0137 47.7017 35.5714C46.8616 34.9131 45.7386 34.6159 44.625 34.8498C44.6197 34.851 44.6145 34.8519 44.6092 34.8533C44.5475 34.8671 38.3617 36.258 31.9013 37.5177C31.6147 37.5737 31.3355 37.6276 31.0602 37.6806C30.8399 37.7229 30.6227 37.7647 30.4095 37.8052C30.3483 37.8169 30.2869 37.8285 30.2261 37.8401C29.8498 37.9115 29.4853 37.98 29.1309 38.0458C28.9883 38.0723 28.8469 38.0985 28.7078 38.1241C20.5945 39.6187 18.3153 39.6455 17.6828 39.5599C17.6803 39.5596 17.6782 39.5593 17.6757 39.5588C17.6661 39.5575 17.6567 39.5561 17.6479 39.5547C17.6415 39.5537 17.6355 39.5526 17.6296 39.5517C17.6253 39.5509 17.6207 39.5502 17.6166 39.5495C17.5772 39.5424 17.5464 39.5349 17.5226 39.5278L17.3401 39.4534L17.5676 38.8957C17.7912 38.3473 17.7879 37.7446 17.5583 37.1987C17.5009 37.0622 17.4309 36.9334 17.3499 36.8133C17.1067 36.4533 16.7629 36.173 16.3516 36.0053L10.3694 33.5661C9.82107 33.3423 9.21824 33.3458 8.6724 33.5754C8.1264 33.805 7.70273 34.2335 7.47909 34.7818L0.164016 52.7222C-0.297585 53.8543 0.247957 55.1507 1.38002 55.6125L7.3624 58.0518C7.63555 58.1632 7.91815 58.2159 8.19648 58.2159C9.07139 58.2159 9.90227 57.6946 10.2525 56.8358L10.3075 56.701L11.6868 57.2633C11.6876 57.2636 11.6883 57.264 11.6893 57.2643C13.0086 57.8023 14.2241 58.5698 15.2762 59.5222C15.4675 59.6954 15.6534 59.8748 15.8336 60.0598C16.0138 60.2449 16.1881 60.436 16.3565 60.6325C16.4405 60.7308 16.5233 60.8306 16.6042 60.9316C18.1372 62.8432 20.1469 64.3427 22.4158 65.2679L23.9675 65.9005H12.6009C11.8017 65.9005 11.1513 65.2502 11.1513 64.451V61.6328C11.1513 61.0176 10.6527 60.519 10.0375 60.519C9.42239 60.519 8.92377 61.0176 8.92377 61.6328V64.451C8.92377 66.4785 10.5732 68.1281 12.6009 68.1281H29.4307L43.7786 73.9784C44.2725 74.1798 44.7834 74.2753 45.2866 74.2752C46.8678 74.2752 48.3696 73.3329 49.0026 71.7807C49.2622 71.1441 49.3455 70.4786 49.2756 69.8389C50.0219 69.946 50.7957 69.8478 51.4971 69.5449C52.2099 69.237 52.8007 68.7466 53.2202 68.128H74.3228C76.3504 68.128 77.9999 66.4785 77.9999 64.4508V13.3804C77.9998 13.3789 77.9996 13.3777 77.9996 13.3762ZM38.7359 5.95218H48.1875L49.6487 12.2667H37.2747L38.7359 5.95218ZM34.9884 12.2667H11.6684L14.135 5.95218H36.4495L34.9884 12.2667ZM49.9361 30.219L44.5793 25.4735C44.2607 25.1913 43.8613 25.0503 43.462 25.0503C43.0626 25.0503 42.663 25.1913 42.3444 25.4735L36.9879 30.219V14.4942H49.9361V30.219ZM8.19374 55.9851L2.23055 53.5537L9.53786 35.6328L15.501 38.0644L8.19374 55.9851ZM52.691 62.7067L51.4127 62.1853C51.4121 62.185 51.4114 62.1849 51.4108 62.1846C51.4104 62.1844 51.4099 62.1841 51.4095 62.184C51.4093 62.184 51.4092 62.1838 51.409 62.1838L38.0963 56.7557C37.5269 56.5235 36.8768 56.7968 36.6445 57.3666C36.4122 57.9362 36.6856 58.5862 37.2554 58.8186L50.5684 64.2469C50.624 64.2696 50.6778 64.2947 50.7297 64.3223C50.7443 64.33 50.7579 64.3395 50.7722 64.3476C50.8088 64.3683 50.8455 64.389 50.8801 64.412C50.8967 64.4231 50.9119 64.4359 50.9281 64.4475C50.9587 64.4694 50.9899 64.4911 51.0189 64.5148C51.0364 64.5292 51.0522 64.5451 51.0691 64.5601C51.095 64.5831 51.1215 64.6053 51.1459 64.6297C51.1628 64.6465 51.1779 64.6649 51.1941 64.6823C51.2164 64.7063 51.2395 64.7299 51.2605 64.7552C51.2765 64.7746 51.2905 64.7951 51.3057 64.8151C51.3248 64.8401 51.3446 64.8646 51.3621 64.8905C51.3769 64.9121 51.3895 64.935 51.4032 64.9571C51.4191 64.9827 51.4358 65.0078 51.4503 65.0342C51.4634 65.0579 51.4744 65.0828 51.4864 65.107C51.4992 65.133 51.5131 65.1586 51.5246 65.1853C51.5358 65.2109 51.5447 65.2374 51.5546 65.2634C51.5647 65.2898 51.5757 65.3157 51.5845 65.3425C51.5933 65.3695 51.6 65.3971 51.6075 65.4243C51.615 65.4513 51.6234 65.4778 51.6296 65.5051C51.6358 65.5326 51.6398 65.5607 51.6448 65.5884C51.6499 65.6161 51.6557 65.6435 51.6593 65.6716C51.663 65.6996 51.6643 65.7279 51.6666 65.7561C51.6689 65.7845 51.6723 65.8126 51.6732 65.841C51.6741 65.8689 51.6727 65.897 51.6724 65.9251C51.6721 65.954 51.6726 65.983 51.6707 66.0121C51.6691 66.0396 51.6649 66.0672 51.6619 66.0948C51.6587 66.1245 51.6563 66.1542 51.6514 66.1838C51.647 66.2109 51.6401 66.2378 51.6345 66.2649C51.6281 66.295 51.6227 66.325 51.6147 66.3548C51.6077 66.3812 51.5982 66.4074 51.5898 66.4336C51.5804 66.4635 51.5717 66.4933 51.5606 66.5227C51.5511 66.543 51.5419 66.5634 51.5332 66.584C51.5312 66.5887 51.5301 66.5936 51.5283 66.5981C51.3543 66.9999 51.0332 67.319 50.6138 67.5002C50.1522 67.6993 49.6237 67.7063 49.1636 67.5186L46.8049 66.5568C46.7939 66.5524 46.7828 66.5494 46.7718 66.5453C46.7607 66.5402 46.7502 66.5344 46.7389 66.5299L35.911 62.1148C35.341 61.8826 34.6913 62.1559 34.4591 62.7257C34.2268 63.2953 34.5003 63.9454 35.0699 64.1777L45.8978 68.5928C45.9094 68.5975 45.9211 68.6008 45.9329 68.6051C45.9434 68.6097 45.9531 68.6153 45.964 68.6196C46.8727 68.9902 47.3107 70.031 46.9402 70.9398C46.5695 71.8488 45.5292 72.2869 44.62 71.916L30.0719 65.984C30.0713 65.9837 30.0707 65.9834 30.0701 65.9831L23.2573 63.2051C22.0581 62.7161 20.9444 62.0374 19.9614 61.2024C19.3715 60.7014 18.8287 60.1442 18.3424 59.5379C17.8633 58.9406 17.3377 58.3835 16.7722 57.8714C15.528 56.7452 14.0906 55.8377 12.5308 55.2015C12.5306 55.2015 12.5305 55.2013 12.5303 55.2013L11.1492 54.6383L13.9001 47.8917L16.4997 41.5163L16.6915 41.5945C16.872 41.668 17.1294 41.7725 17.8223 41.7987C18.6879 41.8379 20.1199 41.7476 22.6854 41.3851C24.4305 41.1386 26.5711 40.7822 29.07 40.3224C29.1315 40.3111 29.1926 40.2998 29.2548 40.2884C29.3716 40.2668 29.4897 40.2448 29.6082 40.2229C29.7004 40.2058 29.793 40.1885 29.8864 40.171C29.9927 40.151 30.0995 40.131 30.2071 40.1108C30.3212 40.0893 30.4366 40.0675 30.5527 40.0454C30.6457 40.0278 30.7384 40.0102 30.8323 39.9924C30.9738 39.9654 31.1178 39.9379 31.2622 39.9101C31.3365 39.8958 31.4101 39.8818 31.4851 39.8675C31.7063 39.8248 31.9304 39.7816 32.1586 39.7372C38.5968 38.485 44.8109 37.0912 45.0901 37.0284C45.118 37.0226 45.1459 37.0193 45.1737 37.0152C45.8891 36.9093 46.5901 37.323 46.7953 37.9906C46.8673 38.2252 46.8757 38.4646 46.8303 38.6897C46.7305 39.1853 46.3704 39.6129 45.8556 39.7721L34.8135 43.1898C34.3639 43.329 34.0504 43.7353 34.0301 44.2055C34.0097 44.6754 34.2867 45.1076 34.7224 45.2853L54.939 53.5287C55.3792 53.7082 55.7232 54.0484 55.9076 54.4867C56.0919 54.925 56.0946 55.4088 55.915 55.8489C55.7354 56.2892 55.3954 56.6332 54.9571 56.8175C54.738 56.9095 54.5075 56.9562 54.2767 56.9575C54.2734 56.9575 54.27 56.9571 54.2667 56.9571C54.2124 56.9571 54.1584 56.9549 54.1043 56.9499C54.0883 56.9484 54.0724 56.945 54.0564 56.9432C54.0151 56.9382 53.9739 56.9335 53.9329 56.9255C53.907 56.9205 53.8814 56.9129 53.8556 56.9068C53.8249 56.8995 53.7939 56.8932 53.7635 56.8843C53.7319 56.875 53.701 56.8626 53.6699 56.8515C53.6453 56.8427 53.6201 56.8354 53.5957 56.8254L40.2815 51.3965C39.7119 51.1642 39.062 51.4377 38.8297 52.0074C38.5974 52.577 38.8708 53.2271 39.4406 53.4594L55.5821 60.0411C55.6923 60.0859 55.7963 60.1409 55.8934 60.2049C56.1845 60.3968 56.4126 60.6703 56.5508 60.9991C56.7121 61.3825 56.7343 61.8008 56.617 62.1943C56.6003 62.2506 56.5806 62.3063 56.5582 62.3613C56.5351 62.4181 56.5093 62.4731 56.4811 62.5261C56.4155 62.6495 56.3355 62.7611 56.2462 62.8627C56.1908 62.9257 56.1315 62.9845 56.0684 63.0385C56.0584 63.047 56.0492 63.0568 56.039 63.065C55.6326 63.3974 55.0892 63.5403 54.5583 63.433C54.4505 63.4113 54.3434 63.3803 54.238 63.3374L52.691 62.7067Z" fill="#1789F8"/>
</g>
<defs>
<clipPath id="clip0_55_171">
<rect width="78" height="78" fill="white"/>
</clipPath>
</defs>
</svg>
