<svg width="78" height="78" viewBox="0 0 78 78" fill="none" xmlns="http://www.w3.org/2000/svg">
<path d="M64.4082 24.6511H58.7364V18.6084C58.7364 15.1456 57.4336 11.8469 55.0678 9.32031C54.628 8.85048 53.8907 8.82641 53.4212 9.26623C52.9515 9.70605 52.9273 10.4432 53.3671 10.9128C55.327 13.0061 56.4065 15.7392 56.4065 18.6084V24.6511H32.7C25.2054 24.6511 19.1082 30.7485 19.1082 38.2431V42.4109H17.2834C16.5575 42.4109 15.8748 42.6936 15.3613 43.207L9.17795 49.3904V43.1702C9.17795 42.2173 8.66775 41.3218 7.84616 40.8334C4.44371 38.8104 2.32995 35.0996 2.32995 31.1492V18.6084C2.32995 12.3986 7.38197 7.34655 13.5918 7.34655H45.1446C46.6001 7.34655 48.0159 7.6197 49.3525 8.15869C49.9492 8.39894 50.6281 8.1104 50.8686 7.51382C51.1092 6.91709 50.8205 6.23825 50.2238 5.9977C48.6091 5.34658 46.9001 5.0166 45.1446 5.0166H13.5918C6.09725 5.0166 0 11.1139 0 18.6084V31.1492C0 35.9172 2.55023 40.3954 6.65544 42.8361C6.77427 42.9068 6.848 43.0347 6.848 43.1703V49.953C6.848 50.8041 7.35607 51.5645 8.14247 51.8903C8.66729 52.1426 9.73888 52.1062 10.4278 51.4359L17.0087 44.8548C17.0822 44.7814 17.1797 44.741 17.2834 44.741H19.1082V50.7837C19.1082 52.6182 19.4677 54.3984 20.1767 56.0748C20.4273 56.6672 21.1109 56.944 21.7035 56.6939C22.2961 56.4433 22.5732 55.7597 22.3228 55.1671C21.736 53.7795 21.4383 52.3049 21.4383 50.7839V38.2432C21.4383 32.0332 26.4903 26.9812 32.7001 26.9812H64.4082C70.618 26.9812 75.6701 32.0332 75.6701 38.2432V50.7839C75.6701 54.7497 73.6422 58.3493 70.2454 60.4129C69.4448 60.8993 68.9474 61.787 68.9474 62.7294V70.3277L61.4616 62.8417C60.9482 62.3283 60.2655 62.0456 59.5394 62.0456H32.7C29.8738 62.0456 27.1714 60.9944 25.0903 59.0858C24.6162 58.6512 23.8793 58.6829 23.4442 59.157C23.0092 59.6312 23.0411 60.3681 23.5153 60.8031C26.0273 63.107 29.289 64.3757 32.6998 64.3757H59.5391C59.6414 64.3757 59.7414 64.4171 59.8137 64.4895L67.6973 72.3731C68.3061 72.841 68.9011 73.2026 69.9825 72.8275C70.7689 72.5017 71.2769 71.7413 71.2769 70.8902V62.7293C71.2769 62.5954 71.3452 62.4706 71.4549 62.404C75.5534 59.9143 78 55.5704 78 50.7837V38.2431C78 30.7485 71.9027 24.6511 64.4082 24.6511Z" fill="#1789F8"/>
<path d="M45.2659 52.4344C44.5828 51.4692 43.3383 50.822 41.9189 50.822C39.7667 50.822 38.016 52.3097 38.016 54.1382C38.016 55.9667 39.7669 57.4543 41.9189 57.4543C43.8074 57.4543 45.3864 56.3088 45.7452 54.7927C47.4636 54.0689 48.8164 52.6267 49.4035 50.8021C51.1049 50.4146 52.379 48.8906 52.379 47.0734V42.8726C52.379 41.1183 51.1916 39.6372 49.5786 39.1881C49.1989 36.8483 48.0491 34.7013 46.2863 33.0787C44.3194 31.2681 41.7631 30.271 39.0882 30.271C33.8246 30.271 29.422 34.0624 28.5967 39.1883C26.9843 39.6377 25.7974 41.1186 25.7974 42.8724V47.0733C25.7974 49.1823 27.5133 50.8982 29.6223 50.8982C31.7314 50.8982 33.4472 49.1823 33.4472 47.0733V42.8724C33.4472 41.2279 32.4038 39.8225 30.9444 39.2832C31.6997 35.4236 35.0736 32.6009 39.0882 32.6009C43.0519 32.6009 46.4683 35.4729 47.229 39.2844C45.7711 39.8245 44.7292 41.2289 44.7292 42.8724V47.0733C44.7292 48.6278 45.6618 49.9678 46.9967 50.5655C46.6263 51.3613 46.0171 52.0114 45.2659 52.4344ZM41.9189 55.1245C40.9919 55.1245 40.3459 54.6049 40.3459 54.1384C40.3459 53.6719 40.9919 53.1521 41.9189 53.1521C42.8459 53.1521 43.492 53.6719 43.492 54.1384C43.492 54.6049 42.8458 55.1245 41.9189 55.1245ZM31.1173 47.0736C31.1173 47.8979 30.4467 48.5685 29.6223 48.5685C28.798 48.5685 28.1274 47.8979 28.1274 47.0736V42.8727C28.1274 42.0484 28.798 41.3778 29.6223 41.3778C30.4467 41.3778 31.1173 42.0484 31.1173 42.8727V47.0736ZM47.0591 42.8727C47.0591 42.0484 47.7297 41.3778 48.5541 41.3778C49.3784 41.3778 50.049 42.0484 50.049 42.8727V47.0736C50.049 47.8979 49.3784 48.5685 48.5541 48.5685C47.7297 48.5685 47.0591 47.8979 47.0591 47.0736V42.8727Z" fill="#1789F8"/>
<path d="M55.4062 36.8739H64.6856C65.329 36.8739 65.8506 36.3524 65.8506 35.7089C65.8506 35.0654 65.329 34.5439 64.6856 34.5439H55.4062C54.7629 34.5439 54.2412 35.0654 54.2412 35.7089C54.2412 36.3524 54.7629 36.8739 55.4062 36.8739Z" fill="#1789F8"/>
<path d="M55.4062 42.0887H62.5613C63.2047 42.0887 63.7263 41.5673 63.7263 40.9238C63.7263 40.2803 63.2047 39.7588 62.5613 39.7588H55.4062C54.7629 39.7588 54.2412 40.2803 54.2412 40.9238C54.2412 41.5673 54.7629 42.0887 55.4062 42.0887Z" fill="#1789F8"/>
<path d="M11.4613 21.9913C12.4205 21.9913 13.1982 21.2137 13.1982 20.2544C13.1982 19.2952 12.4205 18.5176 11.4613 18.5176C10.502 18.5176 9.72441 19.2952 9.72441 20.2544C9.72441 21.2137 10.502 21.9913 11.4613 21.9913Z" fill="#1789F8"/>
<path d="M16.7217 21.9913C17.681 21.9913 18.4586 21.2137 18.4586 20.2544C18.4586 19.2952 17.681 18.5176 16.7217 18.5176C15.7625 18.5176 14.9848 19.2952 14.9848 20.2544C14.9848 21.2137 15.7625 21.9913 16.7217 21.9913Z" fill="#1789F8"/>
<path d="M21.9512 21.9913C22.9104 21.9913 23.6881 21.2137 23.6881 20.2544C23.6881 19.2952 22.9104 18.5176 21.9512 18.5176C20.9919 18.5176 20.2143 19.2952 20.2143 20.2544C20.2143 21.2137 20.9919 21.9913 21.9512 21.9913Z" fill="#1789F8"/>
</svg>
