<svg width="78" height="78" viewBox="0 0 78 78" fill="none" xmlns="http://www.w3.org/2000/svg">
<path d="M73.0976 6.59354C62.6532 -3.70394 45.2878 3.86266 45.0789 18.0729C44.9973 23.7751 47.8086 29.0345 52.5985 32.1379C53.5976 32.7854 53.2929 32.5408 59.2528 43.0686C59.3593 43.2566 59.4843 43.4238 59.6217 43.5726L50.9268 51.9491C47.7717 48.8166 42.5337 49.3974 40.1426 53.1667L28.5371 46.2595C28.5198 42.4348 25.4015 39.3266 21.5721 39.3266C15.4932 39.3266 12.3654 46.5975 16.465 51.0202L8.87164 62.4936C4.44713 61.2278 0 64.5645 0 69.1925C0 73.0321 3.12305 76.1569 6.96318 76.1569C13.6615 76.1569 16.4805 67.5715 11.0967 63.5915L18.4336 52.5073C22.05 54.348 26.5429 52.6805 28.0539 48.8368L39.2047 55.4739C38.3043 59.7853 41.616 63.8546 46.0233 63.8546C51.0911 63.8546 54.4688 58.5779 52.3545 53.9897C62.9894 43.744 62.336 44.3891 62.4413 44.2439C62.9971 44.0439 63.4958 43.6529 63.8261 43.0686C69.783 32.5455 69.4807 32.7854 70.4834 32.1361C75.1906 29.0839 78 23.9167 78 18.3145C78 13.8751 76.2594 9.71183 73.0976 6.59354ZM11.4674 69.1925C11.4674 71.6759 9.4465 73.6968 6.96318 73.6968C4.47986 73.6968 2.46071 71.6759 2.46071 69.1925C2.46071 66.7086 4.47986 64.6883 6.96318 64.6883C9.4465 64.6883 11.4674 66.7086 11.4674 69.1925ZM17.8861 48.8749C15.8057 45.925 17.9182 41.7873 21.5721 41.7873C24.0679 41.7873 26.0764 43.822 26.0764 46.2916C26.0764 50.659 20.4188 52.4794 17.8861 48.8749ZM46.0233 61.3944C43.0472 61.3944 41.3042 58.5928 41.522 56.8515C41.5488 52.9013 46.3274 50.9113 49.1541 53.6576C52.0391 56.4409 50.0794 61.3944 46.0233 61.3944ZM69.2283 30.2003C68.4351 30.715 67.7739 31.4131 67.3169 32.2206C61.391 42.6889 61.8111 42.095 61.5397 42.095C61.2678 42.095 61.6974 42.7056 55.762 32.2206C55.3049 31.4131 54.6456 30.715 53.8517 30.2015C49.7325 27.5319 47.3146 23.011 47.3855 18.1068C47.5634 5.75625 62.6067 -0.508293 71.4784 8.236C77.9244 14.594 76.8235 25.2759 69.2283 30.2003Z" fill="#1789F8"/>
<path d="M70.7571 11.4941C66.8914 6.25606 59.6943 5.41995 54.7366 9.07918C49.7581 12.7533 48.5012 19.923 52.3211 25.0997C56.3838 30.6049 64.1427 31.2571 69.1063 26.8986C69.6169 26.4505 69.6675 25.6733 69.2194 25.1628C68.7713 24.6522 67.9941 24.6016 67.4829 25.0497C63.572 28.4816 57.4848 27.9531 54.301 23.6387C51.3029 19.5754 52.2884 13.9441 56.1976 11.0585C60.1044 8.17523 65.7512 8.85543 68.7773 12.955C70.7297 15.6008 71.016 18.9524 69.8306 21.788C69.5687 22.4146 69.8645 23.1353 70.4911 23.3977C71.1178 23.659 71.839 23.3638 72.1008 22.7366C73.5683 19.2261 73.2988 14.9379 70.7571 11.4941Z" fill="#1789F8"/>
</svg>
