<svg width="42" height="42" viewBox="0 0 42 42" fill="none" xmlns="http://www.w3.org/2000/svg">
<g clip-path="url(#clip0_99_14658)">
<path d="M20.4094 9.25327C20.2125 9.25327 20.0813 9.18765 19.95 9.0564C19.6875 8.7939 19.6875 8.40015 19.95 8.13765L20.3438 7.7439C20.6719 7.35015 20.6719 6.75952 20.3438 6.4314C20.0156 6.10327 19.425 6.10327 19.0313 6.4314L16.8656 8.59702C16.6031 8.85952 16.2094 8.85952 15.9469 8.59702C15.6844 8.33452 15.6844 7.94077 15.9469 7.67827L18.1125 5.51265C19.0313 4.65952 20.4094 4.65952 21.2625 5.51265C22.1156 6.36577 22.1156 7.7439 21.2625 8.66265L20.8688 9.0564C20.7375 9.18765 20.6063 9.25327 20.4094 9.25327Z" fill="#EF644C"/>
<path d="M11.8781 8.2688C11.6813 8.2688 11.55 8.20317 11.4187 8.07192C11.1562 7.80942 11.1562 7.41567 11.4187 7.15317L12.075 6.49692C12.4031 6.10317 12.4031 5.51255 12.075 5.18442C11.7469 4.8563 11.0906 4.8563 10.7625 5.18442L8.33437 7.61255C8.07187 7.87505 7.67813 7.87505 7.41563 7.61255C7.15313 7.35005 7.15313 6.9563 7.41563 6.6938L9.84375 4.26567C10.6312 3.47817 12.2062 3.47817 12.9937 4.26567C13.8469 5.1188 13.8469 6.49692 12.9937 7.41567L12.3375 8.07192C12.2062 8.20317 12.075 8.2688 11.8781 8.2688Z" fill="#EF644C"/>
<path d="M17.7844 19.3595C17.6531 19.3595 17.5219 19.2939 17.3906 19.2283C13.4531 16.6033 6.62811 12.7314 1.11561 10.5001C0.918738 10.4345 0.721863 10.3033 0.524988 10.1064C-0.196887 9.38451 -0.196887 8.26889 0.524988 7.48139C0.524988 7.48139 0.524988 7.48139 0.590613 7.41576C1.64061 6.43139 3.08436 5.97201 4.59374 6.10326L20.4094 7.94076L26.3812 8.92514C26.7094 8.99076 26.9719 9.31889 26.9062 9.64701C26.8406 9.97514 26.5125 10.2376 26.1844 10.172L20.2125 9.18764L4.46249 7.41576C3.34686 7.28451 2.29686 7.67826 1.44374 8.40014C1.24686 8.66264 1.24686 8.99076 1.44374 9.18764C1.50936 9.25326 1.57499 9.25326 1.64061 9.31889C7.15311 11.5501 14.1094 15.4876 18.1125 18.1783C18.4406 18.3751 18.5062 18.7689 18.3094 19.097C18.1781 19.2283 17.9812 19.3595 17.7844 19.3595Z" fill="#EF644C"/>
<path d="M34.125 26.1189C33.9281 26.1189 33.7968 26.0533 33.6656 25.922C33.4031 25.6595 33.4031 25.2658 33.6656 25.0033L35.8312 22.8376C36.1593 22.4439 36.1593 21.8533 35.8312 21.5251C35.5031 21.197 34.9125 21.197 34.5187 21.5251L34.125 21.9189C33.8625 22.1814 33.4687 22.1814 33.2062 21.9189C32.9437 21.6564 32.9437 21.2626 33.2062 21.0001L33.6 20.6064C34.5187 19.7533 35.8968 19.7533 36.75 20.6064C37.6031 21.4595 37.6031 22.8376 36.75 23.7564L34.5843 25.922C34.4531 26.0533 34.3218 26.1189 34.125 26.1189Z" fill="#EF644C"/>
<path d="M35.1094 34.5845C34.9125 34.5845 34.7812 34.5189 34.65 34.3876C34.3875 34.1251 34.3875 33.7314 34.65 33.4689L37.0125 31.0408C37.3406 30.647 37.3406 30.0564 37.0125 29.7283C36.6844 29.4001 36.0937 29.4001 35.7 29.7283L35.0437 30.3845C34.7812 30.647 34.3875 30.647 34.125 30.3845C33.8625 30.122 33.8625 29.7283 34.125 29.4658L34.7812 28.8095C35.7 27.9564 37.0781 27.9564 37.9312 28.8095C38.7844 29.6626 38.7844 31.0408 37.9312 31.9595L35.5687 34.3876C35.4375 34.5189 35.3062 34.5845 35.1094 34.5845Z" fill="#EF644C"/>
<path d="M33.4031 41.8033C32.9437 41.8033 32.4187 41.6064 32.0906 41.2783C31.8937 41.0814 31.7625 40.8845 31.6969 40.6877C29.4 35.1095 25.5281 28.0877 22.8375 24.0189C22.6406 23.6908 22.7062 23.297 23.0344 23.1002C23.3625 22.9033 23.7562 22.9689 23.9531 23.297C26.7094 27.4314 30.6469 34.5189 32.9437 40.1627C33.0094 40.2283 33.0094 40.2939 33.075 40.3595C33.2719 40.5564 33.6656 40.5564 33.8625 40.3595C34.65 39.572 35.0437 38.4564 34.9125 37.3408L33.075 21.4595L32.1562 15.2252C32.0906 14.897 32.3531 14.5033 32.6812 14.5033C33.0094 14.4377 33.4031 14.7002 33.4031 15.0283L34.3219 21.2627L36.1594 37.1439C36.2906 38.6533 35.7656 40.1627 34.7156 41.2127C34.3875 41.672 33.8625 41.8033 33.4031 41.8033Z" fill="#EF644C"/>
<path d="M9.31875 31.3689C9.1875 31.3689 9.05625 31.3033 8.925 31.2376L1.90313 26.5126C1.575 26.2501 1.37813 25.8564 1.3125 25.4626C1.3125 25.0689 1.44375 24.7408 1.70625 24.4126L2.8875 23.2314C3.28125 22.8376 3.675 22.8376 4.00312 22.8376H4.13438L11.6156 24.6751C11.9438 24.7408 12.2063 25.1345 12.075 25.4626C12.0094 25.7908 11.6156 26.0533 11.2875 25.922L4.00312 24.2158C3.9375 24.2158 3.87188 24.2158 3.87188 24.2158L2.69062 25.397L9.7125 30.1876C10.0406 30.3845 10.1062 30.7783 9.90938 31.1064C9.7125 31.2376 9.51562 31.3689 9.31875 31.3689Z" fill="#EF644C"/>
<path d="M16.7344 40.622C16.6688 40.622 16.6031 40.622 16.5375 40.622C16.1438 40.5564 15.8156 40.3595 15.6188 40.0314L10.5 32.4189C10.3031 32.0907 10.3688 31.697 10.6969 31.5001C11.025 31.3032 11.4188 31.3689 11.6157 31.697L16.7344 39.2439L17.85 38.1282L15.6188 30.3189C15.4875 29.9907 15.75 29.597 16.0781 29.5314C16.4063 29.4657 16.8 29.6626 16.8656 29.9907L19.0969 37.8001C19.2281 38.1939 19.0969 38.7189 18.7031 39.1126L17.5219 40.2939C17.3906 40.4907 17.0625 40.622 16.7344 40.622Z" fill="#EF644C"/>
<path d="M11.8781 32.4844C11.6812 32.4844 11.4187 32.4844 11.2218 32.4188C10.8937 32.3532 10.6312 32.025 10.6968 31.6969C10.7625 31.3688 11.0906 31.1063 11.4187 31.1719C12.7968 31.3688 15.0937 30.4501 15.75 29.7938L37.6031 9.8438C39.7687 7.7438 41.475 3.34692 40.1625 1.9688C39.8343 1.64067 39.3093 1.4438 38.5875 1.50942C36.6187 1.50942 33.7312 2.88755 32.1562 4.46255L11.9437 25.8563C11.2875 26.5126 10.3031 28.6782 10.5656 30.1219C10.6312 30.4501 10.3687 30.8438 10.0406 30.8438C9.71247 30.9094 9.31872 30.6469 9.31872 30.3188C8.99059 28.4157 10.1718 25.8563 11.0906 24.9375L31.3031 3.47817C33.1406 1.57505 36.3562 0.131299 38.6531 0.0656738H38.7187C39.7687 0.0656738 40.6218 0.328174 41.2125 0.918799C43.3125 3.08442 41.1468 8.20317 38.6531 10.6313L16.7343 30.6469C15.9468 31.5 13.7156 32.4844 11.8781 32.4844Z" fill="#EF644C"/>
<path d="M37.275 7.21875C36.9468 7.21875 36.6187 6.95625 36.6187 6.62813C36.5531 6.0375 36.0937 5.64375 35.4375 5.57812H35.3062C34.9125 5.57812 34.65 5.31563 34.65 4.92188C34.65 4.52812 34.9125 4.26562 35.3062 4.26562H35.5031C36.8812 4.33125 37.8656 5.25 37.9312 6.49687C37.9312 6.89062 37.6687 7.21875 37.275 7.21875Z" fill="#EF644C"/>
<path d="M8.99062 34.322C8.53125 34.322 8.07188 34.1251 7.74375 33.797C7.41563 33.4689 7.21875 33.0751 7.21875 32.6158C7.21875 32.1564 7.41562 31.697 7.67812 31.3689L11.4187 27.6283C12.0094 27.0376 13.2563 27.0376 13.8469 27.6283C14.175 27.9564 14.3062 28.3501 14.3062 28.8751C14.3062 29.4001 14.1094 29.7939 13.8469 30.122L10.1062 33.8626C9.90937 34.1251 9.45 34.322 8.99062 34.322ZM12.7312 28.4814C12.6 28.4814 12.5344 28.547 12.4688 28.6126L8.72813 32.3533C8.6625 32.4189 8.59688 32.5501 8.59688 32.6158C8.59688 32.747 8.6625 32.8126 8.72813 32.8783C8.925 33.0751 9.12188 33.0751 9.25313 32.9439L13.0594 29.1376C13.125 29.072 13.1906 28.9408 13.1906 28.8751C13.1906 28.8095 13.125 28.6783 13.0594 28.6126C12.9281 28.4814 12.7969 28.4814 12.7312 28.4814Z" fill="#EF644C"/>
</g>
<defs>
<clipPath id="clip0_99_14658">
<rect width="42" height="42" fill="white"/>
</clipPath>
</defs>
</svg>
