<svg width="42" height="42" viewBox="0 0 42 42" fill="none" xmlns="http://www.w3.org/2000/svg">
<path d="M22.1155 7.74312C21.0655 7.74312 20.0811 7.35 19.3587 6.6276C18.5707 5.83968 18.1776 4.92072 18.1776 3.87072C18.2431 1.70688 20.0155 0 22.1155 0C24.2811 0 26.0535 1.7724 26.0535 3.8724C26.0535 4.9224 25.6603 5.90688 24.8724 6.62928C24.15 7.35 23.1655 7.74312 22.1155 7.74312ZM22.1155 1.31208C20.7379 1.31208 19.5569 2.49312 19.4897 3.87072C19.4897 4.72416 19.9483 5.31384 20.2776 5.70864C20.7363 6.16728 21.3931 6.43104 22.1155 6.43104C22.8379 6.43104 23.4931 6.16896 23.9535 5.70864C24.3466 5.31552 24.7414 4.72416 24.7414 3.87072C24.7414 2.49312 23.5587 1.31208 22.1155 1.31208Z" fill="#EF644C"/>
<path d="M30.0569 34.5189H14.9621C9.38447 34.5189 4.78967 29.6621 4.78967 23.7569V20.9345C4.78967 20.5413 5.05175 20.2776 5.44655 20.2776H12.1397C13.8466 20.2776 15.2897 21.7207 15.2897 23.5586V23.7552C15.2897 24.2138 15.6173 24.6086 16.0776 24.6086H29.269C29.7276 24.6086 30.0569 24.2155 30.0569 23.7552V23.5586C30.0569 21.7207 31.5 20.2776 33.2069 20.2776H39.5724C39.9655 20.2776 40.2293 20.5397 40.2293 20.9345V23.7569C40.2276 29.6621 35.6345 34.5189 30.0569 34.5189ZM6.10343 21.5913V23.7569C6.10343 28.9413 10.1069 33.2069 14.9621 33.2069H30.0552C34.9121 33.2069 38.9138 28.9413 38.9138 23.7569V21.5913H33.2052C32.2207 21.5913 31.3673 22.4448 31.3673 23.5603V23.7569C31.3673 24.9379 30.4483 25.9224 29.2673 25.9224H16.0776C14.8966 25.9224 13.9776 24.9379 13.9776 23.7569V23.5603C13.9776 22.4448 13.1242 21.5913 12.1397 21.5913H6.10343Z" fill="#EF644C"/>
<path d="M36.4224 21.5258C36.2259 21.5258 36.0293 21.3947 35.8966 21.2637L24.8069 4.92235C24.6104 4.59475 24.6759 4.19995 24.938 4.00339C25.2656 3.80683 25.6604 3.87235 25.8569 4.19995L36.9483 20.5413C37.1448 20.8689 37.0793 21.2637 36.7517 21.4603C36.6845 21.4586 36.5535 21.5258 36.4224 21.5258Z" fill="#EF644C"/>
<path d="M7.80864 21.5259C7.6776 21.5259 7.54656 21.4604 7.41552 21.3948C7.08792 21.1983 7.0224 20.8035 7.21896 20.4759L18.3758 4.13452C18.5724 3.80692 18.9672 3.7414 19.2948 3.93796C19.6224 4.20004 19.6879 4.59484 19.4914 4.92244L8.33448 21.2638C8.20344 21.3932 8.00688 21.5259 7.80864 21.5259Z" fill="#EF644C"/>
<path d="M26.1189 25.9224H18.112C17.9155 25.9224 17.7189 25.8569 17.5862 25.7258C17.4535 25.5948 17.3896 25.3982 17.4552 25.2L19.9483 6.75865C20.0138 6.43105 20.3414 6.16729 20.6707 6.16729C20.9983 6.23281 21.262 6.56041 21.262 6.88969L18.9 24.6086H25.3965L23.0344 6.89137C22.9689 6.56377 23.231 6.16897 23.6258 6.16897C23.9534 6.10345 24.2827 6.36553 24.3482 6.76033L26.8413 25.2C26.8413 25.3966 26.8413 25.5931 26.7103 25.7258C26.512 25.8569 26.3155 25.9224 26.1189 25.9224Z" fill="#EF644C"/>
<path d="M28.4811 41.9999H15.8155C15.619 41.9999 15.4224 41.9344 15.2914 41.8033C15.1603 41.6723 15.0948 41.4757 15.1603 41.2775L16.2103 33.7964C16.2759 33.4688 16.5379 33.2051 16.8672 33.2051H27.3672C27.6948 33.2051 27.9586 33.4672 28.0241 33.7964L29.1396 41.1464C29.1396 41.212 29.2051 41.2775 29.2051 41.343C29.1379 41.7378 28.8759 41.9999 28.4811 41.9999ZM16.6035 40.6878H27.7603L26.8414 34.5188H17.4569L16.6035 40.6878Z" fill="#EF644C"/>
<path d="M33.2068 42H11.0258C10.6327 42 10.3689 41.738 10.3689 41.3432C10.3689 40.9484 10.631 40.6863 11.0258 40.6863H33.2068C33.5999 40.6863 33.8637 40.9484 33.8637 41.3432C33.8637 41.738 33.5999 42 33.2068 42Z" fill="#EF644C"/>
<path d="M14.962 30.1224H12.9931C12.5999 30.1224 12.3362 29.8603 12.3362 29.4655C12.3362 29.0724 12.5983 28.8086 12.9931 28.8086H14.962C15.3551 28.8086 15.6189 29.0707 15.6189 29.4655C15.6189 29.8586 15.3568 30.1224 14.962 30.1224Z" fill="#EF644C"/>
<path d="M20.6068 30.1224H18.6378C18.2447 30.1224 17.981 29.8603 17.981 29.4655C17.981 29.0724 18.243 28.8086 18.6378 28.8086H20.6068C20.9999 28.8086 21.2637 29.0707 21.2637 29.4655C21.262 29.8586 20.9999 30.1224 20.6068 30.1224Z" fill="#EF644C"/>
<path d="M26.3155 30.1224H24.281C23.8879 30.1224 23.6241 29.8603 23.6241 29.4655C23.6241 29.0724 23.8862 28.8086 24.281 28.8086H26.3155C26.7086 28.8086 26.9724 29.0707 26.9724 29.4655C26.9724 29.8586 26.7086 30.1224 26.3155 30.1224Z" fill="#EF644C"/>
<path d="M31.9586 30.1224H29.9896C29.5965 30.1224 29.3328 29.8603 29.3328 29.4655C29.3328 29.0724 29.5948 28.8086 29.9896 28.8086H31.9586C32.3517 28.8086 32.6155 29.0707 32.6155 29.4655C32.6155 29.8586 32.3534 30.1224 31.9586 30.1224Z" fill="#EF644C"/>
</svg>
