<svg width="42" height="42" viewBox="0 0 42 42" fill="none" xmlns="http://www.w3.org/2000/svg">
<path d="M37.0125 42C36.8156 42 36.6187 41.9344 36.4875 41.7375L32.4843 36.0938C32.2875 35.7656 32.3531 35.3719 32.6156 35.175C32.8781 34.9781 33.3375 35.0438 33.5343 35.3063L37.5375 40.95C37.7343 41.2781 37.6687 41.6719 37.4062 41.8688C37.275 41.9344 37.1437 42 37.0125 42Z" fill="#EF644C"/>
<path d="M4.98751 41.9999C4.85626 41.9999 4.72501 41.9343 4.59376 41.8687C4.26564 41.6718 4.20001 41.278 4.46251 40.9499L8.46564 35.3062C8.66251 34.978 9.05626 34.9124 9.38439 35.1749C9.71251 35.3718 9.77814 35.7655 9.51564 36.0937L5.51251 41.7374C5.38126 41.9343 5.18439 41.9999 4.98751 41.9999Z" fill="#EF644C"/>
<path d="M30.975 37.9968H11.025C10.6313 37.9968 10.3688 37.7343 10.3688 37.3406C10.3688 36.9468 10.6313 36.6843 11.025 36.6843H30.975C31.3688 36.6843 31.6313 36.9468 31.6313 37.3406C31.6313 37.7343 31.3688 37.9968 30.975 37.9968Z" fill="#EF644C"/>
<path d="M32.6157 40.3594H9.3844C8.99065 40.3594 8.72815 40.0969 8.72815 39.7031C8.72815 39.3094 8.99065 39.0469 9.3844 39.0469H32.6157C33.0094 39.0469 33.2719 39.3094 33.2719 39.7031C33.2719 40.0969 33.0094 40.3594 32.6157 40.3594Z" fill="#EF644C"/>
<path d="M29.4 3.54375C29.0063 3.54375 28.7438 3.28125 28.7438 2.8875C28.7438 2.03438 28.0219 1.3125 27.1688 1.3125H14.8969C14.0438 1.3125 13.3219 2.03438 13.3219 2.8875C13.3219 3.28125 13.0594 3.54375 12.6656 3.54375C12.2719 3.54375 12.0094 3.28125 12.0094 2.8875C12.0094 1.24688 13.2563 0 14.8969 0H27.1688C28.8094 0 30.0563 1.24688 30.0563 2.8875C30.0563 3.28125 29.7938 3.54375 29.4 3.54375Z" fill="#EF644C"/>
<path d="M32.2875 33.7969H9.71246C8.72808 33.7969 7.74371 33.4032 7.08746 32.6157C6.43121 31.8938 6.10308 30.9094 6.23433 29.925L8.26871 7.54692C8.39996 5.70942 9.90933 4.3313 11.7468 4.3313H30.2531C32.0906 4.3313 33.5343 5.70942 33.7312 7.54692L35.7656 29.925C35.8312 30.975 35.5031 31.9594 34.8468 32.6813C34.1906 33.4032 33.2062 33.7969 32.2875 33.7969ZM11.7468 5.6438C10.6312 5.6438 9.64683 6.49692 9.58121 7.67817L7.54683 30.0563C7.48121 30.7125 7.67808 31.3032 8.07183 31.7626C8.46558 32.2219 9.05621 32.4844 9.71246 32.4844H32.2875C32.8781 32.4844 33.4687 32.2219 33.8625 31.7626C34.3218 31.3032 34.5187 30.6469 34.4531 29.9907L32.4187 7.61255C32.2875 6.4313 31.4343 5.57817 30.2531 5.57817H11.7468V5.6438Z" fill="#EF644C"/>
<path d="M30.45 24.0844H11.55C10.9594 24.0844 10.5 23.8876 10.1063 23.4282C9.71253 23.0344 9.51566 22.4438 9.58128 21.9188L10.7625 8.72817C10.8938 7.7438 11.7469 6.9563 12.7313 6.9563H29.2688C30.2532 6.9563 31.1063 7.7438 31.2375 8.72817L32.4188 21.9188C32.4844 22.4438 32.2875 23.0344 31.8938 23.4282C31.5 23.8876 30.975 24.0844 30.45 24.0844ZM12.7313 8.2688C12.4032 8.2688 12.075 8.5313 12.075 8.85942L10.8938 22.05C10.8938 22.2469 10.9594 22.4438 11.0907 22.5751C11.2219 22.7063 11.4188 22.7719 11.55 22.7719H30.45C30.7125 22.7719 30.8438 22.6407 30.9094 22.5751C31.0407 22.4438 31.1063 22.2469 31.1063 22.05L29.925 8.85942C29.925 8.5313 29.5969 8.2688 29.2688 8.2688H12.7313Z" fill="#EF644C"/>
<path d="M23.6251 5.6438C23.5594 5.6438 23.4282 5.6438 23.3626 5.57818C23.0344 5.44693 22.9032 5.05318 23.0344 4.72505L24.8719 0.393801C25.0032 0.0656763 25.3969 -0.0655737 25.7251 0.0656763C26.0532 0.196926 26.1844 0.590676 26.0532 0.918801L24.2157 5.25005C24.1501 5.51255 23.8876 5.6438 23.6251 5.6438Z" fill="#EF644C"/>
<path d="M18.375 5.6438C18.1125 5.6438 17.85 5.51255 17.7844 5.25005L15.9469 0.918801C15.8157 0.590676 15.9469 0.196926 16.275 0.0656763C16.6032 -0.0655737 16.9969 0.0656763 17.1282 0.393801L18.9657 4.72505C19.0969 5.05318 18.9657 5.44693 18.6375 5.57818C18.5719 5.6438 18.4407 5.6438 18.375 5.6438Z" fill="#EF644C"/>
<path d="M13.0594 31.3031C11.4188 31.3031 10.0406 29.925 10.0406 28.2844C10.0406 26.6437 11.4188 25.2656 13.0594 25.2656C14.7 25.2656 16.0781 26.6437 16.0781 28.2844C16.0781 29.925 14.7 31.3031 13.0594 31.3031ZM13.0594 26.5781C12.1406 26.5781 11.3531 27.3656 11.3531 28.2844C11.3531 29.2031 12.1406 29.9906 13.0594 29.9906C13.9781 29.9906 14.7656 29.2031 14.7656 28.2844C14.7656 27.3656 13.9781 26.5781 13.0594 26.5781Z" fill="#EF644C"/>
<path d="M28.9406 31.3031C27.3 31.3031 25.9219 29.925 25.9219 28.2844C25.9219 26.6437 27.3 25.2656 28.9406 25.2656C30.5812 25.2656 31.9594 26.6437 31.9594 28.2844C31.9594 29.925 30.5812 31.3031 28.9406 31.3031ZM28.9406 26.5781C28.0219 26.5781 27.2344 27.3656 27.2344 28.2844C27.2344 29.2031 28.0219 29.9906 28.9406 29.9906C29.8594 29.9906 30.6469 29.2031 30.6469 28.2844C30.6469 27.3656 29.8594 26.5781 28.9406 26.5781Z" fill="#EF644C"/>
<path d="M29.3344 5.6437C28.9406 5.6437 28.6781 5.3812 28.6781 4.98745V2.88745C28.6781 2.4937 28.9406 2.2312 29.3344 2.2312C29.7281 2.2312 29.9906 2.4937 29.9906 2.88745V4.98745C29.9906 5.3812 29.7281 5.6437 29.3344 5.6437Z" fill="#EF644C"/>
<path d="M12.6656 5.6437C12.2719 5.6437 12.0094 5.3812 12.0094 4.98745V2.88745C12.0094 2.4937 12.2719 2.2312 12.6656 2.2312C13.0594 2.2312 13.3219 2.4937 13.3219 2.88745V4.98745C13.3219 5.3812 13.0594 5.6437 12.6656 5.6437Z" fill="#EF644C"/>
</svg>
