<svg width="42" height="42" viewBox="0 0 42 42" fill="none" xmlns="http://www.w3.org/2000/svg">
<path d="M0.65625 27.1687C0.2625 27.1687 0 26.8405 0 26.5124V6.89053C0 5.70928 0.91875 4.79053 2.1 4.79053H27.825C29.0063 4.79053 29.925 5.70928 29.925 6.89053V14.3062C29.925 14.6999 29.5969 14.9624 29.2687 14.9624C28.9406 14.9624 28.6125 14.6343 28.6125 14.3062V6.89053C28.6125 6.49678 28.2844 6.10303 27.825 6.10303H2.1C1.70625 6.10303 1.3125 6.49678 1.3125 6.89053V26.5124C1.3125 26.9062 1.05 27.1687 0.65625 27.1687Z" fill="#EF644C"/>
<path d="M29.7281 32.9436H12.9281C12.5344 32.9436 12.2719 32.6155 12.2719 32.2874C12.2719 31.9592 12.6 31.6311 12.9281 31.6311H29.7281C30.1218 31.6311 30.3843 31.9592 30.3843 32.2874C30.3843 32.6155 30.1218 32.9436 29.7281 32.9436Z" fill="#EF644C"/>
<path d="M40.0312 32.9436H37.4719C37.0781 32.9436 36.8156 32.6154 36.8156 32.2873C36.8156 31.9592 37.1437 31.6311 37.4719 31.6311H40.0312C40.3594 31.6311 40.6875 31.3686 40.6875 30.9748V22.9029C40.6875 22.6404 40.6219 22.4436 40.5562 22.3123L36.8813 15.2248C36.6188 14.8311 36.1594 14.5686 35.7 14.5686H29.925V26.0529C29.925 26.4467 29.5969 26.7092 29.2687 26.7092H1.3125V31.6311C1.3125 31.6311 1.3125 31.6967 1.37812 31.6967H5.18438C5.57812 31.6967 5.84062 32.0248 5.84062 32.3529C5.84062 32.6811 5.5125 33.0092 5.18438 33.0092H1.37812C0.590625 33.0092 0 32.3529 0 31.6311V26.0529C0 25.6592 0.328125 25.3967 0.65625 25.3967H28.6125V13.8467C28.6125 13.4529 28.9406 13.1904 29.2687 13.1904H35.7C36.6844 13.1904 37.5375 13.7154 38.0625 14.5686L41.7375 21.6561C41.9344 21.9842 42 22.4436 42 22.9029V30.9748C42 32.0904 41.1469 32.9436 40.0312 32.9436Z" fill="#EF644C"/>
<path d="M37.8656 22.0498H31.8937C31.5 22.0498 31.2375 21.7217 31.2375 21.3936V16.4717C31.2375 16.0779 31.5656 15.8154 31.8937 15.8154H35.3062C35.5687 15.8154 35.7656 15.9467 35.8969 16.2092L38.4562 21.1311C38.5875 21.3279 38.5875 21.5904 38.4562 21.7873C38.325 21.9842 38.1281 22.0498 37.8656 22.0498ZM32.55 20.7373H36.75L34.9125 17.1936H32.6156V20.7373H32.55Z" fill="#EF644C"/>
<path d="M9.05626 37.2093C6.56251 37.2093 4.52814 35.1749 4.52814 32.6812C4.52814 30.1874 6.56251 28.1531 9.05626 28.1531C11.55 28.1531 13.5844 30.1874 13.5844 32.6812C13.5844 35.1749 11.55 37.2093 9.05626 37.2093ZM9.05626 29.4656C7.28439 29.4656 5.84064 30.9093 5.84064 32.6812C5.84064 34.4531 7.28439 35.8968 9.05626 35.8968C10.8281 35.8968 12.2719 34.4531 12.2719 32.6812C12.2719 30.9093 10.8281 29.4656 9.05626 29.4656Z" fill="#EF644C"/>
<path d="M33.6 37.2093C31.1063 37.2093 29.0719 35.1749 29.0719 32.6812C29.0719 30.1874 31.1063 28.1531 33.6 28.1531C36.0938 28.1531 38.1281 30.1874 38.1281 32.6812C38.1281 35.1749 36.0938 37.2093 33.6 37.2093ZM33.6 29.4656C31.8282 29.4656 30.3844 30.9093 30.3844 32.6812C30.3844 34.4531 31.8282 35.8968 33.6 35.8968C35.3719 35.8968 36.8156 34.4531 36.8156 32.6812C36.8156 30.9093 35.3719 29.4656 33.6 29.4656Z" fill="#EF644C"/>
<path d="M23.1656 11.6812H6.7594C6.36565 11.6812 6.10315 11.353 6.10315 11.0249C6.10315 10.6968 6.43127 10.3687 6.7594 10.3687H23.1656C23.5594 10.3687 23.8219 10.6968 23.8219 11.0249C23.8219 11.353 23.5594 11.6812 23.1656 11.6812Z" fill="#EF644C"/>
<path d="M23.1656 16.4062H6.7594C6.36565 16.4062 6.10315 16.0781 6.10315 15.75C6.10315 15.4219 6.43127 15.0938 6.7594 15.0938H23.1656C23.5594 15.0938 23.8219 15.4219 23.8219 15.75C23.8219 16.0781 23.5594 16.4062 23.1656 16.4062Z" fill="#EF644C"/>
<path d="M23.1656 21.0654H6.7594C6.36565 21.0654 6.10315 20.7373 6.10315 20.4092C6.10315 20.0811 6.43127 19.7529 6.7594 19.7529H23.1656C23.5594 19.7529 23.8219 20.0811 23.8219 20.4092C23.8219 20.7373 23.5594 21.0654 23.1656 21.0654Z" fill="#EF644C"/>
</svg>
