<svg width="30" height="30" viewBox="0 0 30 30" fill="none" xmlns="http://www.w3.org/2000/svg">
<path d="M14.9995 0.9375C13.5076 0.9375 12.0769 1.53013 11.022 2.58502C9.96709 3.63992 9.37446 5.07066 9.37446 6.5625V7.5H8.59633C7.80707 7.49917 7.04789 7.80278 6.47685 8.34762C5.90581 8.89247 5.56691 9.63656 5.53071 10.425L4.79008 25.8469C4.7711 26.2616 4.83628 26.6758 4.9817 27.0647C5.12712 27.4535 5.34977 27.8089 5.63622 28.1093C5.92268 28.4098 6.267 28.6492 6.64845 28.813C7.0299 28.9768 7.44057 29.0617 7.85571 29.0625H22.1432C22.5583 29.0617 22.969 28.9768 23.3505 28.813C23.7319 28.6492 24.0762 28.4098 24.3627 28.1093C24.6491 27.8089 24.8718 27.4535 25.0172 27.0647C25.1626 26.6758 25.2278 26.2616 25.2088 25.8469L24.4682 10.425C24.432 9.63656 24.0931 8.89247 23.5221 8.34762C22.951 7.80278 22.1918 7.49917 21.4026 7.5H20.6245V6.5625C20.6245 5.07066 20.0318 3.63992 18.9769 2.58502C17.922 1.53013 16.4913 0.9375 14.9995 0.9375ZM11.2495 6.5625C11.2495 5.56794 11.6445 4.61411 12.3478 3.91085C13.0511 3.20759 14.0049 2.8125 14.9995 2.8125C15.994 2.8125 16.9478 3.20759 17.6511 3.91085C18.3544 4.61411 18.7495 5.56794 18.7495 6.5625V7.5H11.2495V6.5625ZM22.5932 10.5094L23.3338 25.9406C23.3397 26.1019 23.3138 26.2627 23.2575 26.4139C23.2012 26.5651 23.1156 26.7037 23.0057 26.8219C22.8935 26.9371 22.7594 27.0288 22.6113 27.0916C22.4632 27.1544 22.3041 27.187 22.1432 27.1875H7.85571C7.69485 27.187 7.53572 27.1544 7.38762 27.0916C7.23952 27.0288 7.10543 26.9371 6.99321 26.8219C6.88331 26.7037 6.79776 26.5651 6.74146 26.4139C6.68516 26.2627 6.65921 26.1019 6.66508 25.9406L7.40571 10.5094C7.42018 10.2035 7.55198 9.91487 7.77371 9.70361C7.99545 9.49235 8.29007 9.37466 8.59633 9.375H21.4026C21.7088 9.37466 22.0035 9.49235 22.2252 9.70361C22.4469 9.91487 22.5787 10.2035 22.5932 10.5094Z" fill="#1F1F1F"/>
<path d="M10.6494 12.3656C11.1672 12.3656 11.5869 11.9459 11.5869 11.4281C11.5869 10.9104 11.1672 10.4906 10.6494 10.4906C10.1316 10.4906 9.71191 10.9104 9.71191 11.4281C9.71191 11.9459 10.1316 12.3656 10.6494 12.3656Z" fill="#1F1F1F"/>
<path d="M19.3495 12.3656C19.8673 12.3656 20.287 11.9459 20.287 11.4281C20.287 10.9104 19.8673 10.4906 19.3495 10.4906C18.8317 10.4906 18.412 10.9104 18.412 11.4281C18.412 11.9459 18.8317 12.3656 19.3495 12.3656Z" fill="#1F1F1F"/>
</svg>
